Coordinates
version=1
nRows=26
nColumns=24
inDegrees=yes

Units are S.I. units (second, meters, Newtons, ...)
Angles are in degrees.

endheader
time	pelvis_tilt	pelvis_list	pelvis_rotation	pelvis_tx	pelvis_ty	pelvis_tz	hip_flexion_r	hip_adduction_r	hip_rotation_r	knee_angle_r	ankle_angle_r	subtalar_angle_r	mtp_angle_r	hip_flexion_l	hip_adduction_l	hip_rotation_l	knee_angle_l	ankle_angle_l	subtalar_angle_l	mtp_angle_l	lumbar_extension	lumbar_bending	lumbar_rotation
      3.73000000	    -12.26674791	      8.45623716	     -1.14836677	     -0.88625428	     -0.03580461	     -0.28380099	     15.52681261	    -15.61947577	     -9.22466750	    -59.70392376	    -28.61118358	    -18.58403585	     10.03830507	     30.40587382	      9.56319429	     -4.15881890	    -23.46996411	     -0.29745320	    -12.04259182	     -6.28660463	      9.69463046	     -9.40473925	      5.03567147
      3.73500000	    -12.23628395	      8.31712693	     -1.09787548	     -0.87932063	     -0.03453937	     -0.28449183	     16.51582111	    -15.41508472	     -9.09987536	    -60.65624592	    -27.32373571	    -18.84735397	     10.41708248	     29.75854700	      9.53654926	     -4.00657187	    -23.22823422	      0.10922853	    -11.86446727	     -6.13101315	      9.58790175	     -9.26770226	      4.85649851
      3.74000000	    -12.19726872	      8.14321449	     -1.05690811	     -0.87241818	     -0.03321242	     -0.28518316	     17.47886493	    -15.17257457	     -9.00076198	    -61.49207325	    -26.00607393	    -18.89812858	     10.92112480	     29.09411761	      9.47554783	     -3.82731487	    -22.96804369	      0.46863844	    -11.74272067	     -5.99733121	      9.47232495	     -9.08583304	      4.66974304
      3.74500000	    -12.15505387	      8.02683322	     -1.06518653	     -0.86557855	     -0.03186772	     -0.28592791	     18.44779908	    -14.99417973	     -8.82219598	    -62.19643443	    -24.90318367	    -18.80985272	     13.07059597	     28.41098402	      9.47293379	     -3.66907198	    -22.63375354	      0.59037191	    -11.92158210	     -5.86268091	      9.36052173	     -8.93483792	      4.56039899
      3.75000000	    -12.07309531	      7.76664513	     -0.97486705	     -0.85874236	     -0.03044258	     -0.28658829	     19.29054467	    -14.67417203	     -8.86165319	    -62.79378832	    -23.62455905	    -18.55955613	     13.67758874	     27.69964941	      9.32948305	     -3.44960340	    -22.38704236	      1.02787846	    -11.62182223	     -5.72416978	      9.18316885	     -8.67930708	      4.27317945
      3.75500000	    -11.98928483	      7.59878497	     -0.93888234	     -0.85183216	     -0.02900746	     -0.28737987	     20.11772702	    -14.46205609	     -8.78028376	    -63.20214268	    -22.82627356	    -18.31862484	     17.17250210	     26.93287973	      9.29927981	     -3.16318847	    -22.02068963	      1.29459167	    -11.66394741	     -5.90214026	      9.04328396	     -8.48029314	      4.09929879
      3.76000000	    -11.92248068	      7.38512664	     -0.90737328	     -0.84500373	     -0.02761416	     -0.28802588	     20.97936642	    -14.18410028	     -8.77380913	    -63.64063672	    -21.53866924	    -17.72313644	     17.75130190	     26.20315444	      9.18581182	     -2.97445240	    -21.68078949	      1.60891308	    -11.55495672	     -5.86126232	      8.90952851	     -8.24527168	      3.92076271
      3.76500000	    -11.84872244	      7.17743546	     -0.85097128	     -0.83820950	     -0.02622751	     -0.28871388	     21.80543507	    -13.92547349	     -8.79831904	    -63.98403548	    -20.29864561	    -17.02166652	     18.53587369	     25.45262862	      9.09487403	     -2.73230113	    -21.30758557	      1.85987119	    -11.51924888	     -5.88144580	      8.76592887	     -8.01746635	      3.71797129
      3.77000000	    -11.75605033	      6.95756253	     -0.78068028	     -0.83145150	     -0.02478354	     -0.28948727	     22.55171180	    -13.65712377	     -8.81265097	    -64.09378785	    -19.66643328	    -16.64258203	     22.00812621	     24.66330112	      9.01209714	     -2.41248033	    -20.90512970	      2.14321064	    -11.52854401	     -6.45487647	      8.59823966	     -7.76996790	      3.48521830
      3.77500000	    -11.69970194	      6.73847162	     -0.70353273	     -0.82472646	     -0.02347113	     -0.29013209	     23.35608063	    -13.38408413	     -8.89559290	    -64.27026564	    -18.51310171	    -15.92217038	     22.54102764	     23.92675323	      8.89183929	     -2.22773099	    -20.50905513	      2.40943164	    -11.39775833	     -6.44001454	      8.47080622	     -7.53581176	      3.27140196
      3.78000000	    -11.63057596	      6.52472245	     -0.59359066	     -0.81802453	     -0.02216930	     -0.29082882	     24.11012186	    -13.13412082	     -9.02397440	    -64.34900021	    -17.41528735	    -15.20995657	     23.24569298	     23.16268524	      8.79150504	     -2.00636860	    -20.07888301	      2.62484660	    -11.31756255	     -6.46927277	      8.32548409	     -7.31137511	      3.02179087
      3.78500000	    -11.53678798	      6.29441837	     -0.47286683	     -0.81138194	     -0.02083070	     -0.29158927	     24.78751578	    -12.86750680	     -9.14838595	    -64.21985325	    -16.82709362	    -14.86119166	     26.19348089	     22.36638509	      8.68500870	     -1.72831445	    -19.63991029	      2.86548589	    -11.26231258	     -6.92136026	      8.14595063	     -7.06407643	      2.74005963
      3.79000000	    -11.50130674	      6.05002860	     -0.34903827	     -0.80474766	     -0.01962834	     -0.29220974	     25.53085079	    -12.56765438	     -9.31935366	    -64.12985893	    -15.79997107	    -14.26493307	     26.58626383	     21.64364296	      8.52320436	     -1.59769468	    -19.20152498	      3.10303519	    -11.05664611	     -6.87842018	      8.02539114	     -6.81504290	      2.46270997
      3.79500000	    -11.43587580	      5.83195156	     -0.19817846	     -0.79810345	     -0.01845780	     -0.29289594	     26.21151871	    -12.32088761	     -9.52801462	    -63.95984912	    -14.80721321	    -13.69834539	     27.08744180	     20.87518860	      8.40132344	     -1.42734183	    -18.73532186	      3.29885489	    -10.89317376	     -6.85373114	      7.87901446	     -6.59318841	      2.17595964
      3.80000000	    -11.31850069	      5.67316383	     -0.04725619	     -0.79147511	     -0.01731726	     -0.29360718	     26.82026390	    -12.14589104	     -9.72536571	    -63.70547176	    -13.90616663	    -13.22823829	     27.99068957	     20.02719933	      8.34569669	     -1.20375499	    -18.22305605	      3.47750142	    -10.76467248	     -6.86280639	      7.67126689	     -6.43321492	      1.90295855
      3.80500000	    -11.19069154	      5.43968117	      0.08779589	     -0.78483989	     -0.01613755	     -0.29433125	     27.36096462	    -11.87572539	     -9.93718383	    -63.27551500	    -13.25797356	    -12.98045233	     29.80886120	     19.17712030	      8.20175222	     -1.06806458	    -17.71327176	      3.61368860	    -10.71028338	     -6.95351042	      7.45725537	     -6.18004311	      1.63607436
      3.81000000	    -11.22552911	      5.18824206	      0.30408713	     -0.77824360	     -0.01524299	     -0.29503021	     28.07179897	    -11.61038846	    -10.24139683	    -62.86495195	    -12.50161280	    -12.71476688	     30.11986357	     18.54244039	      8.03034210	     -0.91734213	    -17.28150130	      3.85939269	    -10.40228262	     -6.88670970	      7.41120458	     -5.93580005	      1.27799261
      3.81500000	    -11.17430465	      4.97280749	      0.49073439	     -0.77164461	     -0.01432803	     -0.29571800	     28.67232034	    -11.38141641	    -10.51850816	    -62.37923476	    -11.75453208	    -12.41677066	     30.47867621	     17.79623462	      7.89315562	     -0.76166658	    -16.80706499	      4.04918075	    -10.20458942	     -6.85162901	      7.27392356	     -5.72073971	      0.95436572
      3.82000000	    -11.10469399	      4.77864905	      0.69219118	     -0.76506647	     -0.01345518	     -0.29644681	     29.22915359	    -11.18646273	    -10.80527109	    -61.81606167	    -11.08995390	    -12.19462179	     30.85744374	     17.02939847	      7.78092767	     -0.60031621	    -16.32231414	      4.20381270	    -10.02842770	     -6.83588612	      7.11238088	     -5.52006316	      0.63102735
      3.82500000	    -11.06480467	      4.57274531	      0.87632280	     -0.75850138	     -0.01268027	     -0.29712425	     29.80616630	    -10.96580322	    -11.07734003	    -61.18470010	    -10.52661906	    -12.01232269	     31.15644528	     16.29928694	      7.64480062	     -0.43368211	    -15.84201002	      4.36808055	     -9.87231405	     -6.82396454	      6.98554990	     -5.30871790	      0.31579701
      3.83000000	    -11.01070454	      4.38981131	      1.08331506	     -0.75194142	     -0.01196483	     -0.29782705	     30.34273923	    -10.79098655	    -11.37551791	    -60.48852685	    -10.02356707	    -11.85873736	     31.43959748	     15.55689478	      7.53367046	     -0.27167965	    -15.36243951	      4.52169143	     -9.70670362	     -6.82210620	      6.83938888	     -5.12204608	     -0.01004588
      3.83500000	    -10.97137639	      4.21712166	      1.28238899	     -0.74539731	     -0.01134011	     -0.29849708	     30.88154521	    -10.62239132	    -11.66163323	    -59.73020819	     -9.60521978	    -11.73294890	     31.66970809	     14.83543391	      7.42455170	     -0.12232048	    -14.88497127	      4.67339046	     -9.54668378	     -6.82633075	      6.71000969	     -4.94355396	     -0.32075306
      3.84000000	    -10.97308269	      4.05358945	      1.45881170	     -0.73885354	     -0.01085509	     -0.29913157	     31.45686356	    -10.45320997	    -11.92635907	    -58.91906033	     -9.24469371	    -11.62832727	     31.80949646	     14.16387976	      7.31520001	     -0.00047548	    -14.41402194	      4.84013799	     -9.40771105	     -6.82033055	      6.63107101	     -4.76926861	     -0.56734560
      3.84500000	    -10.91985145	      3.91082773	      1.69079211	     -0.73234038	     -0.01034808	     -0.29978825	     31.93139777	    -10.33755857	    -12.22825774	    -58.03560600	     -8.93998935	    -11.48073027	     31.96234400	     13.44002462	      7.22850557	      0.12304002	    -13.95067359	      4.98512059	     -9.18254749	     -6.81751932	      6.47668947	     -4.62832876	     -0.93723232
      3.85000000	    -10.89534019	      3.78000839	      1.88778435	     -0.72582029	     -0.00996819	     -0.30038197	     32.42776555	    -10.21395842	    -12.49432883	    -57.09647746	     -8.68639717	    -11.35141840	     32.07581202	     12.75055524	      7.14105798	      0.20223947	    -13.48989288	      5.14281802	     -8.98112725	     -6.80901515	      6.36074258	     -4.49255944	     -1.23852299
      3.85500000	    -10.88797593	      3.65842722	      2.08566309	     -0.71929642	     -0.00968605	     -0.30094953	     32.91984408	    -10.09941701	    -12.75111153	    -56.09827370	     -8.46810835	    -11.19814203	     32.15526196	     12.08854026	      7.05650083	      0.25257632	    -13.04348397	      5.31393715	     -8.75982514	     -6.78155413	      6.26564044	     -4.37108605	     -1.53242163
